<?xml version="1.0" encoding="UTF-8" standalone="no"?>
<!DOCTYPE svg PUBLIC "-//W3C//DTD SVG 1.1//EN"
 "http://www.w3.org/Graphics/SVG/1.1/DTD/svg11.dtd">
<!-- Generated by graphviz version 2.43.0 (0)
 -->
<!-- Title: finite_state_machine Pages: 1 -->
<svg width="521pt" height="83pt"
 viewBox="0.00 0.00 521.00 83.00" xmlns="http://www.w3.org/2000/svg" xmlns:xlink="http://www.w3.org/1999/xlink">
<g id="graph0" class="graph" transform="scale(1 1) rotate(0) translate(4 79)">
<title>finite_state_machine</title>
<polygon fill="white" stroke="transparent" points="-4,4 -4,-79 517,-79 517,4 -4,4"/>
<!-- 0 -->
<g id="node1" class="node">
<title>0</title>
<ellipse fill="none" stroke="black" cx="22" cy="-22" rx="18" ry="18"/>
<ellipse fill="none" stroke="black" cx="22" cy="-22" rx="22" ry="22"/>
<text text-anchor="middle" x="22" y="-18.3" font-family="Times,serif" font-size="14.00">0</text>
</g>
<!-- 1 -->
<g id="node3" class="node">
<title>1</title>
<ellipse fill="none" stroke="black" cx="108" cy="-57" rx="18" ry="18"/>
<text text-anchor="middle" x="108" y="-53.3" font-family="Times,serif" font-size="14.00">1</text>
</g>
<!-- 0&#45;&gt;1 -->
<g id="edge1" class="edge">
<title>0&#45;&gt;1</title>
<path fill="none" stroke="black" d="M42.48,-30.12C54.11,-34.96 69,-41.17 81.55,-46.4"/>
<polygon fill="black" stroke="black" points="80.43,-49.72 91,-50.33 83.12,-43.26 80.43,-49.72"/>
<text text-anchor="middle" x="67" y="-44.8" font-family="Times,serif" font-size="14.00">if</text>
</g>
<!-- 2 -->
<g id="node4" class="node">
<title>2</title>
<ellipse fill="none" stroke="black" cx="207" cy="-22" rx="18" ry="18"/>
<text text-anchor="middle" x="207" y="-18.3" font-family="Times,serif" font-size="14.00">2</text>
</g>
<!-- 0&#45;&gt;2 -->
<g id="edge2" class="edge">
<title>0&#45;&gt;2</title>
<path fill="none" stroke="black" d="M44.08,-19.23C57.25,-17.64 74.58,-15.8 90,-15 120.44,-13.41 155.35,-16.14 178.85,-18.64"/>
<polygon fill="black" stroke="black" points="178.77,-22.15 189.1,-19.79 179.55,-15.19 178.77,-22.15"/>
<text text-anchor="middle" x="108" y="-18.8" font-family="Times,serif" font-size="14.00">~if</text>
</g>
<!-- 5 -->
<g id="node2" class="node">
<title>5</title>
<ellipse fill="none" stroke="black" cx="491" cy="-22" rx="18" ry="18"/>
<ellipse fill="none" stroke="black" cx="491" cy="-22" rx="22" ry="22"/>
<text text-anchor="middle" x="491" y="-18.3" font-family="Times,serif" font-size="14.00">5</text>
</g>
<!-- 1&#45;&gt;2 -->
<g id="edge3" class="edge">
<title>1&#45;&gt;2</title>
<path fill="none" stroke="black" d="M125.45,-51.06C140.46,-45.65 162.86,-37.57 180.23,-31.3"/>
<polygon fill="black" stroke="black" points="181.57,-34.54 189.79,-27.85 179.19,-27.95 181.57,-34.54"/>
<text text-anchor="middle" x="157.5" y="-46.8" font-family="Times,serif" font-size="14.00">end</text>
</g>
<!-- 3 -->
<g id="node5" class="node">
<title>3</title>
<ellipse fill="none" stroke="black" cx="289" cy="-57" rx="18" ry="18"/>
<text text-anchor="middle" x="289" y="-53.3" font-family="Times,serif" font-size="14.00">3</text>
</g>
<!-- 2&#45;&gt;3 -->
<g id="edge4" class="edge">
<title>2&#45;&gt;3</title>
<path fill="none" stroke="black" d="M223.81,-28.91C234.98,-33.8 250.19,-40.46 263.01,-46.06"/>
<polygon fill="black" stroke="black" points="261.66,-49.3 272.23,-50.1 264.47,-42.88 261.66,-49.3"/>
<text text-anchor="middle" x="248" y="-44.8" font-family="Times,serif" font-size="14.00">if</text>
</g>
<!-- 4 -->
<g id="node6" class="node">
<title>4</title>
<ellipse fill="none" stroke="black" cx="388" cy="-22" rx="18" ry="18"/>
<text text-anchor="middle" x="388" y="-18.3" font-family="Times,serif" font-size="14.00">4</text>
</g>
<!-- 2&#45;&gt;4 -->
<g id="edge5" class="edge">
<title>2&#45;&gt;4</title>
<path fill="none" stroke="black" d="M225.07,-19.59C237.72,-17.92 255.4,-15.86 271,-15 301.43,-13.31 336.35,-16.06 359.85,-18.59"/>
<polygon fill="black" stroke="black" points="359.77,-22.1 370.1,-19.75 360.56,-15.14 359.77,-22.1"/>
<text text-anchor="middle" x="289" y="-18.8" font-family="Times,serif" font-size="14.00">~if</text>
</g>
<!-- 3&#45;&gt;4 -->
<g id="edge6" class="edge">
<title>3&#45;&gt;4</title>
<path fill="none" stroke="black" d="M306.45,-51.06C321.46,-45.65 343.86,-37.57 361.23,-31.3"/>
<polygon fill="black" stroke="black" points="362.57,-34.54 370.79,-27.85 360.19,-27.95 362.57,-34.54"/>
<text text-anchor="middle" x="338.5" y="-46.8" font-family="Times,serif" font-size="14.00">end</text>
</g>
<!-- 4&#45;&gt;5 -->
<g id="edge7" class="edge">
<title>4&#45;&gt;5</title>
<path fill="none" stroke="black" d="M406.13,-22C420.49,-22 441.35,-22 458.68,-22"/>
<polygon fill="black" stroke="black" points="458.92,-25.5 468.92,-22 458.92,-18.5 458.92,-25.5"/>
<text text-anchor="middle" x="437.5" y="-25.8" font-family="Times,serif" font-size="14.00">end</text>
</g>
</g>
</svg>
